<svg width="8" height="10" viewBox="0 0 8 10" fill="none" xmlns="http://www.w3.org/2000/svg">
<path d="M3.61461 9.79824C0.776758 5.6842 0.25 5.26197 0.25 3.75C0.25 1.67893 1.92893 0 4 0C6.07107 0 7.75 1.67893 7.75 3.75C7.75 5.26197 7.22324 5.6842 4.38539 9.79824C4.19916 10.0673 3.80082 10.0672 3.61461 9.79824ZM4 5.3125C4.86295 5.3125 5.5625 4.61295 5.5625 3.75C5.5625 2.88705 4.86295 2.1875 4 2.1875C3.13705 2.1875 2.4375 2.88705 2.4375 3.75C2.4375 4.61295 3.13705 5.3125 4 5.3125Z" fill="#767676"/>
</svg>
