<svg width="75" height="38" viewBox="0 0 75 38" fill="none" xmlns="http://www.w3.org/2000/svg">
<g filter="url(#filter0_d_429_6)">
<path d="M6 13C4.89543 13 4 13.8954 4 15C4 16.1046 4.89543 17 6 17L6 13ZM70.4142 16.4142C71.1953 15.6332 71.1953 14.3668 70.4142 13.5858L57.6863 0.857864C56.9052 0.0768156 55.6389 0.0768156 54.8579 0.857864C54.0768 1.63891 54.0768 2.90524 54.8579 3.68629L66.1716 15L54.8579 26.3137C54.0768 27.0948 54.0768 28.3611 54.8579 29.1421C55.6389 29.9232 56.9052 29.9232 57.6863 29.1421L70.4142 16.4142ZM6 17L15.3564 17V13L6 13L6 17ZM15.3564 17L69 17V13L15.3564 13V17Z" fill="#349510"/>
</g>
<defs>
<filter id="filter0_d_429_6" x="0" y="0.272095" width="75" height="37.4558" filterUnits="userSpaceOnUse" color-interpolation-filters="sRGB">
<feFlood flood-opacity="0" result="BackgroundImageFix"/>
<feColorMatrix in="SourceAlpha" type="matrix" values="0 0 0 0 0 0 0 0 0 0 0 0 0 0 0 0 0 0 127 0" result="hardAlpha"/>
<feOffset dy="4"/>
<feGaussianBlur stdDeviation="2"/>
<feComposite in2="hardAlpha" operator="out"/>
<feColorMatrix type="matrix" values="0 0 0 0 0 0 0 0 0 0 0 0 0 0 0 0 0 0 0.25 0"/>
<feBlend mode="normal" in2="BackgroundImageFix" result="effect1_dropShadow_429_6"/>
<feBlend mode="normal" in="SourceGraphic" in2="effect1_dropShadow_429_6" result="shape"/>
</filter>
</defs>
</svg>
