<svg width="10" height="9" viewBox="0 0 10 9" fill="none" xmlns="http://www.w3.org/2000/svg">
<path d="M9.81055 3.22656C9.88672 3.16602 10 3.22266 10 3.31836V7.3125C10 7.83008 9.58008 8.25 9.0625 8.25H0.9375C0.419922 8.25 0 7.83008 0 7.3125V3.32031C0 3.22266 0.111328 3.16797 0.189453 3.22852C0.626953 3.56836 1.20703 4 3.19922 5.44727C3.61133 5.74805 4.30664 6.38086 5 6.37695C5.69727 6.38281 6.40625 5.73633 6.80273 5.44727C8.79492 4 9.37305 3.56641 9.81055 3.22656ZM5 5.75C5.45312 5.75781 6.10547 5.17969 6.43359 4.94141C9.02539 3.06055 9.22266 2.89648 9.82031 2.42773C9.93359 2.33984 10 2.20312 10 2.05859V1.6875C10 1.16992 9.58008 0.75 9.0625 0.75H0.9375C0.419922 0.75 0 1.16992 0 1.6875V2.05859C0 2.20312 0.0664062 2.33789 0.179688 2.42773C0.777344 2.89453 0.97461 3.06055 3.56641 4.94141C3.89453 5.17969 4.54688 5.75781 5 5.75Z" fill="#767676"/>
</svg>
