<svg width="10" height="11" viewBox="0 0 10 11" fill="none" xmlns="http://www.w3.org/2000/svg">
<path d="M9.71465 7.56672L7.52715 6.62922C7.4337 6.58939 7.32984 6.581 7.23121 6.60531C7.13258 6.62961 7.04452 6.6853 6.98027 6.76398L6.01152 7.94758C4.49116 7.23074 3.26762 6.0072 2.55078 4.48684L3.73437 3.51808C3.81322 3.45396 3.86902 3.36589 3.89334 3.26722C3.91765 3.16854 3.90916 3.06463 3.86914 2.97121L2.93164 0.78371C2.88772 0.683008 2.81003 0.600789 2.71198 0.551229C2.61393 0.501669 2.50166 0.487875 2.39453 0.512225L0.363281 0.980975C0.259994 1.00483 0.167841 1.06298 0.101862 1.14595C0.0358838 1.22892 -2.37932e-05 1.33181 1.18285e-08 1.43781C1.18285e-08 6.44758 4.06055 10.5003 9.0625 10.5003C9.16854 10.5004 9.27147 10.4645 9.35448 10.3985C9.43749 10.3325 9.49567 10.2404 9.51953 10.137L9.98828 8.10578C10.0125 7.99813 9.99839 7.88541 9.94844 7.78702C9.8985 7.68863 9.81583 7.61073 9.71465 7.56672Z" fill="#767676"/>
</svg>
