<svg width="31" height="30" viewBox="0 0 31 30" fill="none" xmlns="http://www.w3.org/2000/svg">
<path fill-rule="evenodd" clip-rule="evenodd" d="M30.75 15C30.75 23.2837 24.0337 30 15.75 30C7.46625 30 0.75 23.2837 0.75 15C0.75 6.71625 7.46625 0 15.75 0C24.0337 0 30.75 6.71625 30.75 15ZM16.2875 11.0738C14.8288 11.68 11.9125 12.9363 7.54 14.8413C6.83 15.1238 6.4575 15.4 6.42375 15.67C6.36625 16.1275 6.93875 16.3075 7.71625 16.5513C7.8225 16.585 7.9325 16.6187 8.045 16.6562C8.81125 16.905 9.84125 17.1962 10.3763 17.2075C10.8625 17.2175 11.405 17.0175 12.0037 16.6075C16.0887 13.8488 18.1975 12.455 18.33 12.425C18.4237 12.4037 18.5537 12.3763 18.6413 12.455C18.7288 12.5325 18.72 12.68 18.7113 12.72C18.6537 12.9612 16.4113 15.0475 15.2488 16.1275C14.8863 16.4638 14.63 16.7025 14.5775 16.7575C14.46 16.8787 14.34 16.995 14.225 17.1063C13.5125 17.7913 12.98 18.3062 14.255 19.1462C14.8496 19.5382 15.3288 19.8642 15.8035 20.1872C15.8177 20.1969 15.832 20.2066 15.8462 20.2162C16.38 20.58 16.9125 20.9425 17.6025 21.395C17.7775 21.51 17.945 21.6287 18.1087 21.745C18.73 22.1887 19.2888 22.5862 19.9788 22.5237C20.3787 22.4862 20.7937 22.11 21.0037 20.9862C21.5 18.3287 22.4775 12.5737 22.7037 10.2013C22.7175 10.0043 22.7091 9.80636 22.6787 9.61125C22.6606 9.45366 22.5838 9.30866 22.4637 9.205C22.285 9.05875 22.0075 9.0275 21.8825 9.03C21.3188 9.04 20.4538 9.34125 16.2875 11.0738Z" fill="#0088CC"/>
<path d="M16.2875 11.0738C14.8288 11.68 11.9125 12.9363 7.54 14.8413C6.83 15.1238 6.4575 15.4 6.42375 15.67C6.36625 16.1275 6.93875 16.3075 7.71625 16.5513C7.8225 16.585 7.9325 16.6187 8.045 16.6562C8.81125 16.905 9.84125 17.1962 10.3763 17.2075C10.8625 17.2175 11.405 17.0175 12.0037 16.6075C16.0887 13.8488 18.1975 12.455 18.33 12.425C18.4237 12.4037 18.5537 12.3763 18.6413 12.455C18.7288 12.5325 18.72 12.68 18.7113 12.72C18.6537 12.9612 16.4113 15.0475 15.2488 16.1275C14.8863 16.4638 14.63 16.7025 14.5775 16.7575C14.46 16.8787 14.34 16.995 14.225 17.1063C13.5125 17.7913 12.98 18.3062 14.255 19.1462C14.8496 19.5382 15.3288 19.8642 15.8035 20.1872L15.8462 20.2162C16.38 20.58 16.9125 20.9425 17.6025 21.395C17.7775 21.51 17.945 21.6287 18.1087 21.745C18.73 22.1887 19.2888 22.5862 19.9788 22.5237C20.3787 22.4862 20.7937 22.11 21.0037 20.9862C21.5 18.3287 22.4775 12.5737 22.7037 10.2013C22.7175 10.0043 22.7091 9.80636 22.6787 9.61125C22.6606 9.45366 22.5838 9.30866 22.4637 9.205C22.285 9.05875 22.0075 9.0275 21.8825 9.03C21.3188 9.04 20.4538 9.34125 16.2875 11.0738Z" fill="white"/>
</svg>
