<svg width="100" height="73" viewBox="0 0 100 73" fill="none" xmlns="http://www.w3.org/2000/svg">
<path fill-rule="evenodd" clip-rule="evenodd" d="M97.7778 2H2.22222C2.09949 2 2 2.09949 2 2.22222C2 2.34495 2.09949 2.44444 2.22222 2.44444H97.7778C97.9005 2.44444 98 2.34495 98 2.22222C98 2.09949 97.9005 2 97.7778 2ZM2.22222 0C0.994922 0 0 0.994923 0 2.22222C0 3.06878 0.473368 3.80477 1.16985 4.17995L1.13363 4.20233L6.08811 12.2222H2.22222C0.994922 12.2222 0 13.2171 0 14.4444C0 15.291 0.473391 16.027 1.1699 16.4022L1.13356 16.4246L6.08799 24.4444H2.22222C0.994922 24.4444 0 25.4394 0 26.6667C0 27.5133 0.473417 28.2493 1.16996 28.6245L1.13356 28.6469L6.08795 36.6667H2.22222C0.994922 36.6667 0 37.6616 0 38.8889C0 39.7355 0.473395 40.4715 1.16991 40.8467L1.13356 40.8691L6.08798 48.8889H2.22222C0.994922 48.8889 0 49.8838 0 51.1111C0 52.3384 0.994923 53.3333 2.22222 53.3333H2.66904C3.66443 54.9835 4.58509 56.54 5.44576 57.9952L5.44596 57.9955C7.59326 61.6259 9.36716 64.625 10.9967 66.8718C13.3111 70.0629 15.5874 72.1111 18.6118 72.1111H18.6354H18.6594H18.6838H18.7086H18.7337H18.7593H18.7852H18.8115H18.8381H18.8652H18.8926H18.9204H18.9485H18.977H19.0059H19.0352H19.0648H19.0948H19.1251H19.1558H19.1869H19.2183H19.2501H19.2822H19.3147H19.3476H19.3808H19.4143H19.4482H19.4825H19.5171H19.552H19.5873H19.623H19.6589H19.6953H19.7319H19.7689H19.8063H19.8439H19.8819H19.9203H19.959H19.998H20.0373H20.077H20.117H20.1573H20.1979H20.2389H20.2802H20.3218H20.3637H20.406H20.4486H20.4915H20.5347H20.5782H20.622H20.6661H20.7106H20.7554H20.8004H20.8458H20.8915H20.9375H20.9838H21.0304H21.0773H21.1245H21.1719H21.2197H21.2678H21.3162H21.3649H21.4138H21.4631H21.5126H21.5624H21.6126H21.663H21.7137H21.7646H21.8159H21.8674H21.9192H21.9713H22.0237H22.0763H22.1293H22.1824H22.2359H22.2896H22.3436H22.3979H22.4525H22.5073H22.5623H22.6177H22.6733H22.7291H22.7852H22.8416H22.8983H22.9551H23.0123H23.0697H23.1273H23.1852H23.2434H23.3018H23.3604H23.4193H23.4785H23.5378H23.5975H23.6573H23.7174H23.7778H23.8383H23.8992H23.9602H24.0215H24.083H24.1448H24.2067H24.2689H24.3314H24.394H24.4569H24.52H24.5834H24.6469H24.7107H24.7747H24.8389H24.9033H24.968H25.0328H25.0979H25.1632H25.2286H25.2943H25.3603H25.4264H25.4927H25.5592H25.6259H25.6929H25.76H25.8273H25.8948H25.9625H26.0305H26.0986H26.1669H26.2354H26.304H26.3729H26.442H26.5112H26.5806H26.6503H26.7201H26.79H26.8602H26.9305H27.001H27.0717H27.1426H27.2137H27.2849H27.3563H27.4278H27.4995H27.5714H27.6435H27.7157H27.7881H27.8607H27.9334H28.0063H28.0793H28.1525H28.2259H28.2994H28.373H28.4468H28.5208H28.5949H28.6692H28.7436H28.8182H28.8929H28.9677H29.0427H29.1179H29.1931H29.2685H29.3441H29.4198H29.4956H29.5716H29.6477H29.7239H29.8003H29.8768H29.9534H30.0301H30.107H30.184H30.2611H30.3383H30.4157H30.4932H30.5708H30.6485H30.7263H30.8043H30.8823H30.9605H31.0388H31.1172H31.1957H31.2743H31.353H31.4318H31.5107H31.5898H31.6689H31.7481H31.8274H31.9069H31.9864H32.066H32.1457H32.2255H32.3054H32.3854H32.4654H32.5456H32.6258H32.7062H32.7866H32.8671H32.9477H33.0283H33.109H33.1898H33.2707H33.3517H33.4327H33.5138H33.595H33.6763H33.7576H33.839H33.9204H34.002H34.0835H34.1652H34.2469H34.3287H34.4105H34.4924H34.5743H34.6563H34.7383H34.8204H34.9026H34.9848H35.0671H35.1494H35.2317H35.3141H35.3965H35.479H35.5615H35.6441H35.7267H35.8093H35.892H35.9747H36.0574H36.1402H36.223H36.3059H36.3887H36.4716H36.5546H36.6375H36.7205H36.8035H36.8865H36.9695H37.0526H37.1357H37.2188H37.3019H37.385H37.4681H37.5513H37.6344H37.7176H37.8008H37.8839H37.9671H38.0503H38.1335H38.2167H38.2999H38.3831H38.4663H38.5495H38.6327H38.7159H38.799H38.8822H38.9654H39.0485H39.1316H39.2148H39.2979H39.381H39.464H39.5471H39.6301H39.7132H39.7962H39.8791H39.9621H40.045H40.1279H40.2108H40.2936H40.3764H40.4592H40.542H40.6247H40.7073H40.79H40.8726H40.9552H41.0377H41.1202H41.2026H41.285H41.3673H41.4497H41.5319H41.6141H41.6963H41.7784H41.8604H41.9424H42.0244H42.1063H42.1881H42.2699H42.3516H42.4332H42.5148H42.5964H42.6778H42.7592H42.8405H42.9218H43.003H43.0841H43.1651H43.2461H43.327H43.4078H43.4886H43.5692H43.6498H43.7303H43.8107H43.8911H43.9713H44.0515H44.1316H44.2116H44.2915H44.3713H44.451H44.5306H44.6101H44.6896H44.7689H44.8481H44.9273H45.0063H45.0852H45.1641H45.2428H45.3214H45.3999H45.4783H45.5566H45.6348H45.7129H45.7908H45.8687H45.9464H46.024H46.1015H46.1789H46.2561H46.3333H46.4103H46.4872H46.5639H46.6405H46.717H46.7934H46.8697H46.9458H47.0217H47.0976H47.1733H47.2489H47.3243H47.3996H47.4747H47.5497H47.6246H47.6993H47.7739L47.7771 72.1112H47.8337H47.8905H47.9475H48.0048H48.0623H48.12H48.178H48.2362H48.2947H48.3534H48.4123H48.4714H48.5308H48.5904H48.6502H48.7102H48.7705H48.831H48.8917H48.9526H49.0138H49.0752H49.1368H49.1986H49.2606H49.3228H49.3852H49.4479H49.5107H49.5738H49.6371H49.7005H49.7642H49.8281H49.8922H49.9565H50.021H50.0856H50.1505H50.2156H50.2809H50.3463H50.412H50.4778H50.5439H50.6101H50.6765H50.7431H50.8099H50.8769H50.944H51.0113H51.0788H51.1465H51.2144H51.2824H51.3507H51.4191H51.4876H51.5564H51.6253H51.6943H51.7636H51.833H51.9026H51.9723H52.0422H52.1123H52.1825H52.2529H52.3234H52.3941H52.465H52.536H52.6072H52.6785H52.75H52.8216H52.8934H52.9653H53.0373H53.1095H53.1819H53.2544H53.327H53.3998H53.4727H53.5458H53.6189H53.6923H53.7657H53.8393H53.913H53.9869H54.0609H54.135H54.2092H54.2836H54.3581H54.4327H54.5074H54.5823H54.6573H54.7324H54.8076H54.8829H54.9583H55.0339H55.1096H55.1854H55.2612H55.3372H55.4133H55.4896H55.5659H55.6423H55.7188H55.7955H55.8722H55.949H56.0259H56.103H56.1801H56.2573H56.3346H56.412H56.4895H56.5671H56.6447H56.7225H56.8003H56.8783H56.9563H57.0344H57.1125H57.1908H57.2691H57.3475H57.426H57.5046H57.5832H57.6619H57.7407H57.8196H57.8985H57.9775H58.0565H58.1356H58.2148H58.2941H58.3734H58.4528H58.5322H58.6117H58.6912H58.7708H58.8505H58.9302H59.0099H59.0898H59.1696H59.2495H59.3295H59.4095H59.4895H59.5696H59.6498H59.73H59.8102H59.8904H59.9707H60.0511H60.1314H60.2118H60.2923H60.3727H60.4532H60.5338H60.6143H60.6949H60.7755H60.8561H60.9368H61.0175H61.0982H61.1789H61.2596H61.3404H61.4212H61.502H61.5828H61.6636H61.7444H61.8252H61.9061H61.9869H62.0678H62.1486H62.2295H62.3104H62.3913H62.4721H62.553H62.6339H62.7147H62.7956H62.8765H62.9573H63.0382H63.119H63.1998H63.2806H63.3614H63.4422H63.523H63.6037H63.6845H63.7652H63.8459H63.9266H64.0072H64.0879H64.1685H64.249H64.3296H64.4101H64.4906H64.5711H64.6515H64.7319H64.8123H64.8926H64.9729H65.0531H65.1334H65.2135H65.2937H65.3738H65.4538H65.5338H65.6138H65.6937H65.7735H65.8533H65.9331H66.0128H66.0924H66.172H66.2516H66.3311H66.4105H66.4899H66.5692H66.6484H66.7276H66.8067H66.8857H66.9647H67.0436H67.1225H67.2012H67.2799H67.3586H67.4371H67.5156H67.594H67.6723H67.7506H67.8287H67.9068H67.9848H68.0627H68.1406H68.2183H68.296H68.3736H68.451H68.5284H68.6057H68.6829H68.76H68.837H68.914H68.9908H69.0675H69.1441H69.2206H69.297H69.3734H69.4496H69.5257H69.6016H69.6775H69.7533H69.8289H69.9045H69.9799H70.0552H70.1304H70.2055H70.2805H70.3553H70.43H70.5046H70.5791H70.6535H70.7277H70.8018H70.8758H70.9496H71.0233H71.0969H71.1703H71.2437H71.3168H71.3899H71.4628H71.5355H71.6082H71.6806H71.753H71.8252H71.8972H71.9691H72.0409H72.1125H72.1839H72.2552H72.3264H72.3974H72.4682H72.5389H72.6094H72.6798H72.75H72.8201H72.8899H72.9597H73.0292H73.0986H73.1678H73.2369H73.3058H73.3745H73.4431H73.5114H73.5796H73.6477H73.7155H73.7832H73.8507H73.918H73.9851H74.052H74.1188H74.1854H74.2518H74.318H74.384H74.4498H74.5155H74.5809H74.6462H74.7112H74.7761H74.8407H74.9052H74.9695H75.0335H75.0974H75.1611H75.2245H75.2878H75.3508H75.4136H75.4763H75.5387H75.6009H75.6629H75.7247H75.7862H75.8476H75.9087H75.9696H76.0303H76.0908H76.151H76.211H76.2708H76.3304H76.3897H76.4489H76.5078H76.5664H76.6248H76.683H76.741H76.7987H76.8562H76.9134H76.9704H77.0272H77.0837H77.14H77.1961H77.2519H77.3074H77.3627H77.4177H77.4725H77.5271H77.5814H77.6354H77.6892H77.7428H77.796H77.8491H77.9018H77.9543H78.0065H78.0585H78.1102H78.1617H78.2128H78.2637H78.3144H78.3647H78.4148H78.4647H78.5142H78.5635H78.6125H78.6612H78.7096H78.7578H78.8057H78.8533H78.9006H78.9476H78.9943H79.0408H79.087H79.1328H79.1784H79.2237H79.2687H79.3134H79.3578H79.4019H79.4457H79.4892H79.5325H79.5754H79.618H79.6603H79.7023H79.744H79.7853H79.8264H79.8672H79.9076H79.9478H79.9876H80.0271H80.0663H80.1052H80.1437H80.182H80.2199H80.2575H80.2948H80.3317H80.3683H80.4046H80.4406H80.4762H80.5115H80.5465H80.5811H80.6154H80.6494H80.683H80.7163H80.7493H80.7819H80.8142H80.8461H80.8777H80.9089H80.9398H80.9704H81.0006H81.0304H81.0599H81.0891H81.1179H81.1463H81.1744H81.2021H81.2295H81.2565H81.2831H81.3094H81.3353H81.3609H81.3861H81.4109H81.4353H81.4594H81.4831H81.5065H81.5294C84.4708 72.1112 86.7613 70.1507 89.09 67.0206C91.0164 64.4312 93.1251 60.8193 95.7534 56.3173L95.7535 56.3172L95.7556 56.3135C96.3125 55.3597 96.8927 54.3658 97.4995 53.3333H97.7778C99.0051 53.3333 100 52.3384 100 51.1111C100 49.8838 99.0051 48.8889 97.7778 48.8889H92.7419L98.312 41.1392L98.2135 41.0684C99.2322 40.8659 100 39.9671 100 38.8889C100 37.6616 99.0051 36.6667 97.7778 36.6667H92.7419L98.312 28.917L98.2135 28.8462C99.2322 28.6437 100 27.7448 100 26.6667C100 25.4394 99.0051 24.4444 97.7778 24.4444H92.7419L98.312 16.6947L98.2135 16.624C99.2322 16.4214 100 15.5226 100 14.4444C100 13.2171 99.0051 12.2222 97.7778 12.2222H92.7419L98.312 4.47252L98.2135 4.40174C99.2322 4.19921 100 3.30038 100 2.22222C100 0.994923 99.0051 0 97.7778 0H2.22222ZM95.1807 53.3333H5.00262C5.79609 54.6576 6.53447 55.9061 7.22801 57.0787L7.22836 57.0793C9.34486 60.6578 11.0437 63.5301 12.6157 65.6976C14.8847 68.826 16.6361 70.1111 18.6118 70.1111H18.6354H18.6594H18.6838H18.7086H18.7337H18.7593H18.7852H18.8115H18.8381H18.8652H18.8926H18.9204H18.9485H18.977H19.0059H19.0352H19.0648H19.0948H19.1251H19.1558H19.1869H19.2183H19.2501H19.2822H19.3147H19.3476H19.3808H19.4143H19.4482H19.4825H19.5171H19.552H19.5873H19.623H19.6589H19.6953H19.7319H19.7689H19.8063H19.8439H19.8819H19.9203H19.959H19.998H20.0373H20.077H20.117H20.1573H20.1979H20.2389H20.2802H20.3218H20.3637H20.406H20.4486H20.4915H20.5347H20.5782H20.622H20.6661H20.7106H20.7554H20.8004H20.8458H20.8915H20.9375H20.9838H21.0304H21.0773H21.1245H21.1719H21.2197H21.2678H21.3162H21.3649H21.4138H21.4631H21.5126H21.5624H21.6126H21.663H21.7137H21.7646H21.8159H21.8674H21.9192H21.9713H22.0237H22.0763H22.1293H22.1824H22.2359H22.2896H22.3436H22.3979H22.4525H22.5073H22.5623H22.6177H22.6733H22.7291H22.7852H22.8416H22.8983H22.9551H23.0123H23.0697H23.1273H23.1852H23.2434H23.3018H23.3604H23.4193H23.4785H23.5378H23.5975H23.6573H23.7174H23.7778H23.8383H23.8992H23.9602H24.0215H24.083H24.1448H24.2067H24.2689H24.3314H24.394H24.4569H24.52H24.5834H24.6469H24.7107H24.7747H24.8389H24.9033H24.968H25.0328H25.0979H25.1632H25.2286H25.2943H25.3603H25.4264H25.4927H25.5592H25.6259H25.6929H25.76H25.8273H25.8948H25.9625H26.0305H26.0986H26.1669H26.2354H26.304H26.3729H26.442H26.5112H26.5806H26.6503H26.7201H26.79H26.8602H26.9305H27.001H27.0717H27.1426H27.2137H27.2849H27.3563H27.4278H27.4995H27.5714H27.6435H27.7157H27.7881H27.8607H27.9334H28.0063H28.0793H28.1525H28.2259H28.2994H28.373H28.4468H28.5208H28.5949H28.6692H28.7436H28.8182H28.8929H28.9677H29.0427H29.1179H29.1931H29.2685H29.3441H29.4198H29.4956H29.5716H29.6477H29.7239H29.8003H29.8768H29.9534H30.0301H30.107H30.184H30.2611H30.3383H30.4157H30.4932H30.5708H30.6485H30.7263H30.8043H30.8823H30.9605H31.0388H31.1172H31.1957H31.2743H31.353H31.4318H31.5107H31.5898H31.6689H31.7481H31.8274H31.9069H31.9864H32.066H32.1457H32.2255H32.3054H32.3854H32.4654H32.5456H32.6258H32.7062H32.7866H32.8671H32.9477H33.0283H33.109H33.1898H33.2707H33.3517H33.4327H33.5138H33.595H33.6763H33.7576H33.839H33.9204H34.002H34.0835H34.1652H34.2469H34.3287H34.4105H34.4924H34.5743H34.6563H34.7383H34.8204H34.9026H34.9848H35.0671H35.1494H35.2317H35.3141H35.3965H35.479H35.5615H35.6441H35.7267H35.8093H35.892H35.9747H36.0574H36.1402H36.223H36.3059H36.3887H36.4716H36.5546H36.6375H36.7205H36.8035H36.8865H36.9695H37.0526H37.1357H37.2188H37.3019H37.385H37.4681H37.5513H37.6344H37.7176H37.8008H37.8839H37.9671H38.0503H38.1335H38.2167H38.2999H38.3831H38.4663H38.5495H38.6327H38.7159H38.799H38.8822H38.9654H39.0485H39.1316H39.2148H39.2979H39.381H39.464H39.5471H39.6301H39.7132H39.7962H39.8791H39.9621H40.045H40.1279H40.2108H40.2936H40.3764H40.4592H40.542H40.6247H40.7073H40.79H40.8726H40.9552H41.0377H41.1202H41.2026H41.285H41.3673H41.4497H41.5319H41.6141H41.6963H41.7784H41.8604H41.9424H42.0244H42.1063H42.1881H42.2699H42.3516H42.4332H42.5148H42.5964H42.6778H42.7592H42.8405H42.9218H43.003H43.0841H43.1651H43.2461H43.327H43.4078H43.4886H43.5692H43.6498H43.7303H43.8107H43.8911H43.9713H44.0515H44.1316H44.2116H44.2915H44.3713H44.451H44.5306H44.6101H44.6896H44.7689H44.8481H44.9273H45.0063H45.0852H45.1641H45.2428H45.3214H45.3999H45.4783H45.5566H45.6348H45.7129H45.7908H45.8687H45.9464H46.024H46.1015H46.1789H46.2561H46.3333H46.4103H46.4872H46.5639H46.6405H46.717H46.7934H46.8697H46.9458H47.0217H47.0976H47.1733H47.2489H47.3243H47.3996H47.4747H47.5497H47.6246H47.6993H47.7739H47.8483H47.9226H47.9968H48.0707H48.1446H48.2183H48.2918H48.3651H48.4384H48.5114H48.5843H48.657H48.7296H48.802H48.8743H48.9463H49.0182H49.09H49.1616H49.233H49.3042H49.3753H49.4462H49.5169H49.5874H49.6578H49.7279H49.7979H49.8678H49.9374H50.0068H50.0761H50.1452H50.2141H50.2828H50.3513H50.4196H50.4877H50.5557H50.6234H50.6909H50.7583H50.8254H50.8924H50.9591H51.0257H51.092H51.1581H51.2241H51.2898H51.3553H51.4206H51.4857H51.5506H51.6152H51.6797H51.7439H51.8079H51.8717H51.9353H51.9986H52.0618H52.1247H52.1874H52.2498H52.3121H52.3741H52.4358H52.4974H52.5587H52.6198H52.6806H52.7412H52.8016H52.8617H52.9216H52.9812H53.0406H53.0998H53.1587H53.2174H53.2758H53.334L53.3998 70.1112H53.4727H53.5458H53.6189H53.6923H53.7657H53.8393H53.913H53.9869H54.0609H54.135H54.2092H54.2836H54.3581H54.4327H54.5074H54.5823H54.6573H54.7324H54.8076H54.8829H54.9583H55.0339H55.1096H55.1854H55.2612H55.3372H55.4133H55.4896H55.5659H55.6423H55.7188H55.7955H55.8722H55.949H56.0259H56.103H56.1801H56.2573H56.3346H56.412H56.4895H56.5671H56.6447H56.7225H56.8003H56.8783H56.9563H57.0344H57.1125H57.1908H57.2691H57.3475H57.426H57.5046H57.5832H57.6619H57.7407H57.8196H57.8985H57.9775H58.0565H58.1356H58.2148H58.2941H58.3734H58.4528H58.5322H58.6117H58.6912H58.7708H58.8505H58.9302H59.0099H59.0898H59.1696H59.2495H59.3295H59.4095H59.4895H59.5696H59.6498H59.73H59.8102H59.8904H59.9707H60.0511H60.1314H60.2118H60.2923H60.3727H60.4532H60.5338H60.6143H60.6949H60.7755H60.8561H60.9368H61.0175H61.0982H61.1789H61.2596H61.3404H61.4212H61.502H61.5828H61.6636H61.7444H61.8252H61.9061H61.9869H62.0678H62.1486H62.2295H62.3104H62.3913H62.4721H62.553H62.6339H62.7147H62.7956H62.8765H62.9573H63.0382H63.119H63.1998H63.2806H63.3614H63.4422H63.523H63.6037H63.6845H63.7652H63.8459H63.9266H64.0072H64.0879H64.1685H64.249H64.3296H64.4101H64.4906H64.5711H64.6515H64.7319H64.8123H64.8926H64.9729H65.0531H65.1334H65.2135H65.2937H65.3738H65.4538H65.5338H65.6138H65.6937H65.7735H65.8533H65.9331H66.0128H66.0924H66.172H66.2516H66.3311H66.4105H66.4899H66.5692H66.6484H66.7276H66.8067H66.8857H66.9647H67.0436H67.1225H67.2012H67.2799H67.3586H67.4371H67.5156H67.594H67.6723H67.7506H67.8287H67.9068H67.9848H68.0627H68.1406H68.2183H68.296H68.3736H68.451H68.5284H68.6057H68.6829H68.76H68.837H68.914H68.9908H69.0675H69.1441H69.2206H69.297H69.3734H69.4496H69.5257H69.6016H69.6775H69.7533H69.8289H69.9045H69.9799H70.0552H70.1304H70.2055H70.2805H70.3553H70.43H70.5046H70.5791H70.6535H70.7277H70.8018H70.8758H70.9496H71.0233H71.0969H71.1703H71.2437H71.3168H71.3899H71.4628H71.5355H71.6082H71.6806H71.753H71.8252H71.8972H71.9691H72.0409H72.1125H72.1839H72.2552H72.3264H72.3974H72.4682H72.5389H72.6094H72.6798H72.75H72.8201H72.8899H72.9597H73.0292H73.0986H73.1678H73.2369H73.3058H73.3745H73.4431H73.5114H73.5796H73.6477H73.7155H73.7832H73.8507H73.918H73.9851H74.052H74.1188H74.1854H74.2518H74.318H74.384H74.4498H74.5155H74.5809H74.6462H74.7112H74.7761H74.8407H74.9052H74.9695H75.0335H75.0974H75.1611H75.2245H75.2878H75.3508H75.4136H75.4763H75.5387H75.6009H75.6629H75.7247H75.7862H75.8476H75.9087H75.9696H76.0303H76.0908H76.151H76.211H76.2708H76.3304H76.3897H76.4489H76.5078H76.5664H76.6248H76.683H76.741H76.7987H76.8562H76.9134H76.9704H77.0272H77.0837H77.14H77.1961H77.2519H77.3074H77.3627H77.4177H77.4725H77.5271H77.5814H77.6354H77.6892H77.7428H77.796H77.8491H77.9018H77.9543H78.0065H78.0585H78.1102H78.1617H78.2128H78.2637H78.3144H78.3647H78.4148H78.4647H78.5142H78.5635H78.6125H78.6612H78.7096H78.7578H78.8057H78.8533H78.9006H78.9476H78.9943H79.0408H79.087H79.1328H79.1784H79.2237H79.2687H79.3134H79.3578H79.4019H79.4457H79.4892H79.5325H79.5754H79.618H79.6603H79.7023H79.744H79.7853H79.8264H79.8672H79.9076H79.9478H79.9876H80.0271H80.0663H80.1052H80.1437H80.182H80.2199H80.2575H80.2948H80.3317H80.3683H80.4046H80.4406H80.4762H80.5115H80.5465H80.5811H80.6154H80.6494H80.683H80.7163H80.7493H80.7819H80.8142H80.8461H80.8777H80.9089H80.9398H80.9704H81.0006H81.0304H81.0599H81.0891H81.1179H81.1463H81.1744H81.2021H81.2295H81.2565H81.2831H81.3094H81.3353H81.3609H81.3861H81.4109H81.4353H81.4594H81.4831H81.5065H81.5294C83.4485 70.1112 85.2159 68.8772 87.4854 65.8268C89.3389 63.3353 91.3751 59.8483 94.0023 55.3494L94.0023 55.3492C94.3824 54.6985 94.7747 54.0265 95.1807 53.3333ZM8.43884 48.8889H90.3382L90.2991 48.8608L95.8692 41.1111H3.63394L8.43884 48.8889ZM8.43881 36.6667L3.6339 28.8889H95.8692L90.2991 36.6386L90.3382 36.6667H8.43881ZM8.43885 24.4444H90.3382L90.2991 24.4164L95.8692 16.6667H3.63395L8.43885 24.4444ZM95.8692 4.44444H3.63407L8.43897 12.2222H90.3382L90.2991 12.1941L95.8692 4.44444ZM97.7778 14.2222H2.22222C2.09949 14.2222 2 14.3217 2 14.4444C2 14.5672 2.09949 14.6667 2.22222 14.6667H97.7778C97.9005 14.6667 98 14.5672 98 14.4444C98 14.3217 97.9005 14.2222 97.7778 14.2222ZM2.22222 26.4444H97.7778C97.9005 26.4444 98 26.5439 98 26.6667C98 26.7894 97.9005 26.8889 97.7778 26.8889H2.22222C2.09949 26.8889 2 26.7894 2 26.6667C2 26.5439 2.09949 26.4444 2.22222 26.4444ZM97.7778 38.6667H2.22222C2.09949 38.6667 2 38.7662 2 38.8889C2 39.0116 2.09949 39.1111 2.22222 39.1111H97.7778C97.9005 39.1111 98 39.0116 98 38.8889C98 38.7662 97.9005 38.6667 97.7778 38.6667ZM2.22222 50.8889H97.7778C97.9005 50.8889 98 50.9884 98 51.1111C98 51.2338 97.9005 51.3333 97.7778 51.3333H2.22222C2.09949 51.3333 2 51.2338 2 51.1111C2 50.9884 2.09949 50.8889 2.22222 50.8889Z" fill="#349510"/>
</svg>
