<svg width="102" height="75" viewBox="0 0 102 75" fill="none" xmlns="http://www.w3.org/2000/svg">
<path fill-rule="evenodd" clip-rule="evenodd" d="M47.4081 9.43396C47.4081 10.0051 47.1253 10.7546 46.174 11.6491C45.219 12.5471 43.7291 13.4479 41.7216 14.2464C37.7181 15.8387 32.0503 16.8679 25.6884 16.8679C19.3265 16.8679 13.6588 15.8387 9.65522 14.2464C7.64774 13.4479 6.15785 12.5471 5.20284 11.6491C4.25158 10.7546 3.96875 10.0051 3.96875 9.43396C3.96875 8.86287 4.25158 8.11335 5.20284 7.21885C6.15785 6.32082 7.64774 5.41998 9.65522 4.62155C13.6588 3.02923 19.3265 2 25.6884 2C32.0503 2 37.7181 3.02923 41.7216 4.62155C43.7291 5.41998 45.219 6.32082 46.174 7.21885C47.1253 8.11335 47.4081 8.86287 47.4081 9.43396ZM49.4081 9.43396C49.4081 14.6442 38.7884 18.8679 25.6884 18.8679C12.5884 18.8679 1.96875 14.6442 1.96875 9.43396C1.96875 4.22373 12.5884 0 25.6884 0C38.7884 0 49.4081 4.22373 49.4081 9.43396ZM0.96875 13.5062L2.60677 14.8634C5.56356 17.3133 14.7171 22.1019 26.9332 20.8382C39.3547 19.5532 43.4484 17.9047 46.8327 16.3427L49.6131 15.0595L48.1259 17.7363C47.3568 19.1207 45.8167 20.6354 44.2596 21.9555C42.6734 23.3003 40.9564 24.5363 39.7202 25.3604C38.0868 26.4493 35.4516 27.6059 32.6404 28.5318C30.1456 29.3535 27.435 30.0189 25.0561 30.2914L24.532 61.7417L24.5147 62.7782L23.4795 62.7237C19.3326 62.5054 14.1878 61.8233 9.88154 60.4616C7.73004 59.7812 5.73911 58.9163 4.17939 57.8204C2.63362 56.7343 1.42765 55.3602 1.00509 53.6387C0.96875 53.6387 0.96875 53.6386 0.96875 53.6385V53.6378V53.6364V53.6346V53.6322V53.6293V53.6259V53.622V53.6175V53.6125V53.607V53.601V53.5945V53.5875V53.58V53.5719V53.5634V53.5543V53.5447V53.5347V53.5241V53.513V53.5014V53.4894V53.4768V53.4637V53.4502V53.4361V53.4216V53.4066V53.3911V53.3751V53.3586V53.3416V53.3241V53.3062V53.2878V53.2689V53.2495V53.2297V53.2094V53.1886V53.1673V53.1456V53.1234V53.1007V53.0776V53.054V53.0299V53.0054V52.9804V52.955V52.9291V52.9028V52.876V52.8487V52.821V52.7928V52.7642V52.7352V52.7057V52.6757V52.6454V52.6145V52.5833V52.5515V52.5194V52.4868V52.4538V52.4204V52.3865V52.3522V52.3174V52.2823V52.2467V52.2107V52.1742V52.1374V52.1001V52.0624V52.0243V51.9857V51.9468V51.9074V51.8676V51.8275V51.7869V51.7459V51.7045V51.6626V51.6204V51.5778V51.5348V51.4914V51.4476V51.4033V51.3587V51.3137V51.2683V51.2226V51.1764V51.1298V51.0829V51.0355V50.9878V50.9397V50.8912V50.8424V50.7931V50.7435V50.6935V50.6432V50.5924V50.5413V50.4898V50.438V50.3858V50.3332V50.2803V50.227V50.1733V50.1193V50.0649V50.0101V49.955V49.8996V49.8438V49.7876V49.7311V49.6743V49.6171V49.5595V49.5016V49.4434V49.3848V49.3259V49.2666V49.2071V49.1471V49.0869V49.0263V48.9653V48.9041V48.8425V48.7806V48.7183V48.6558V48.5929V48.5297V48.4661V48.4023V48.3381V48.2736V48.2088V48.1437V48.0783V48.0126V47.9465V47.8802V47.8135V47.7465V47.6793V47.6117V47.5438V47.4757V47.4072V47.3384V47.2694V47.2V47.1304V47.0604V46.9902V46.9197V46.8489V46.7778V46.7065V46.6348V46.5629V46.4907V46.4182V46.3454V46.2724V46.199V46.1255V46.0516V45.9775V45.9031V45.8284V45.7535V45.6783V45.6028V45.5271V45.4511V45.3749V45.2984V45.2216V45.1446V45.0674V44.9899V44.9121V44.8341V44.7558V44.6773V44.5986V44.5196V44.4404V44.3609V44.2812V44.2012V44.1211V44.0406V43.96V43.8791V43.798V43.7167V43.6351V43.5533V43.4713V43.389V43.3066V43.2239V43.141V43.0578V42.9745V42.891V42.8072V42.7232V42.639V42.5546V42.47V42.3852V42.3002V42.215V42.1295V42.0439V41.9581V41.8721V41.7858V41.6994V41.6128V41.526V41.439V41.3518V41.2645V41.1769V41.0892V41.0013V40.9131V40.8249V40.7364V40.6477V40.5589V40.4699V40.3807V40.2914V40.2019V40.1122V40.0223V39.9323V39.8421V39.7518V39.6613V39.5706V39.4797V39.3887V39.2976V39.2063V39.1148V39.0232V38.9314V38.8395V38.7475V38.6552V38.5629V38.4704V38.3777V38.2849V38.192V38.0989V38.0057V37.9124V37.8189V37.7253V37.6316V37.5377V37.4437V37.3496V37.2553V37.1609V37.0664V36.9718V36.8771V36.7822V36.6872V36.5921V36.4969V36.4016V36.3061V36.2106V36.1149V36.0192V35.9233V35.8273V35.7312V35.635V35.5387V35.4424V35.3459V35.2493V35.1526V35.0559V34.959V34.862V34.765V34.6679V34.5707V34.4734V34.376V34.2785V34.1809V34.0833V33.9856V33.8878V33.79V33.692V33.594V33.4959V33.3978V33.2996V33.2013V33.1029V33.0045V32.906V32.8075V32.7089V32.6102V32.5115V32.4128V32.3139V32.215V32.1161V32.0171V31.9181V31.819V31.7199V31.6207V31.5215V31.4223V31.323V31.2237V31.1243V31.0249V30.9254V30.826V30.7265V30.6269V30.5274V30.4278V30.3281V30.2285V30.1288V30.0291V29.9294V29.8297V29.73V29.6302V29.5304V29.4306V29.3308V29.231V29.1312V29.0313V28.9315V28.8317V28.7318V28.632V28.5321V28.4323V28.3324V28.2326V28.1327V28.0329V27.9331V27.8332V27.7334V27.6336V27.5339V27.4341V27.3343V27.2346V27.1349V27.0352V26.9355V26.8359V26.7362V26.6366V26.5371V26.4375V26.338V26.2385V26.1391V26.0396V25.9403V25.8409V25.7416V25.6423V25.5431V25.4439V25.3448V25.2457V25.1466V25.0476V24.9487V24.8498V24.751V24.6522V24.5534V24.4548V24.3561V24.2576V24.1591V24.0606V23.9623V23.8639V23.7657V23.6675V23.5694V23.4714V23.3734V23.2755V23.1777V23.08V22.9823V22.8848V22.7873V22.6898V22.5925V22.4953V22.3981V22.301V22.204V22.1071V22.0103V21.9136V21.817V21.7205V21.6241V21.5278V21.4315V21.3354V21.2394V21.1435V21.0477V20.952V20.8564V20.7609V20.6655V20.5703V20.4751V20.3801V20.2852V20.1904V20.0958V20.0012V19.9068V19.8125V19.7183V19.6243V19.5303V19.4366V19.3429V19.2494V19.156V19.0627V18.9696V18.8766V18.7838V18.6911V18.5985V18.5061V18.4139V18.3217V18.2298V18.138V18.0463V17.9548V17.8634V17.7722V17.6811V17.5902V17.4995V17.4089V17.3185V17.2283V17.1382V17.0483V16.9585V16.869V16.7795V16.6903V16.6012V16.5124V16.4237V16.3351V16.2468V16.1586V16.0706V15.9828V15.8952V15.8077V15.7205V15.6334V13.5062ZM2.96875 53.2444C3.25392 54.2952 4.04067 55.2786 5.3292 56.184C6.65863 57.1181 8.43792 57.9075 10.4845 58.5546C14.2319 59.7396 18.7124 60.3976 22.5497 60.6633L23.0713 29.3634L23.0866 28.449L23.9986 28.3827C26.3596 28.211 29.2856 27.531 32.0147 26.6322C34.7526 25.7305 37.1938 24.6409 38.6108 23.6963C39.8006 22.9031 41.4528 21.7131 42.9663 20.43C43.2321 20.2046 43.4905 19.9789 43.739 19.7545C40.4452 20.8734 35.7087 21.9411 27.139 22.8276C16.0258 23.9772 7.26461 20.3679 2.96875 17.5897V17.5902V17.6811V17.7722V17.8634V17.9548V18.0463V18.138V18.2298V18.3217V18.4139V18.5061V18.5985V18.6911V18.7838V18.8766V18.9696V19.0627V19.156V19.2494V19.3429V19.4366V19.5303V19.6243V19.7183V19.8125V19.9068V20.0012V20.0958V20.1904V20.2852V20.3801V20.4751V20.5703V20.6655V20.7609V20.8564V20.952V21.0477V21.1435V21.2394V21.3354V21.4315V21.5278V21.6241V21.7205V21.817V21.9136V22.0103V22.1071V22.204V22.301V22.3981V22.4953V22.5925V22.6898V22.7873V22.8848V22.9823V23.08V23.1777V23.2755V23.3734V23.4714V23.5694V23.6675V23.7657V23.8639V23.9623V24.0606V24.1591V24.2576V24.3561V24.4548V24.5534V24.6522V24.751V24.8498V24.9487V25.0476V25.1466V25.2457V25.3448V25.4439V25.5431V25.6423V25.7416V25.8409V25.9403V26.0396V26.1391V26.2385V26.338V26.4375V26.5371V26.6366V26.7362V26.8359V26.9355V27.0352V27.1349V27.2346V27.3343V27.4341V27.5339V27.6336V27.7334V27.8332V27.9331V28.0329V28.1327V28.2326V28.3324V28.4323V28.5321V28.632V28.7318V28.8317V28.9315V29.0313V29.1312V29.231V29.3308V29.4306V29.5304V29.6302V29.73V29.8297V29.9294V30.0291V30.1288V30.2285V30.3281V30.4278V30.5274V30.6269V30.7265V30.826V30.9254V31.0249V31.1243V31.2237V31.323V31.4223V31.5215V31.6207V31.7199V31.819V31.9181V32.0171V32.1161V32.215V32.3139V32.4128V32.5115V32.6102V32.7089V32.8075V32.906V33.0045V33.1029V33.2013V33.2996V33.3978V33.4959V33.594V33.692V33.79V33.8878V33.9856V34.0833V34.1809V34.2785V34.376V34.4734V34.5707V34.6679V34.765V34.862V34.959V35.0559V35.1526V35.2493V35.3459V35.4424V35.5387V35.635V35.7312V35.8273V35.9233V36.0192V36.1149V36.2106V36.3061V36.4016V36.4969V36.5921V36.6872V36.7822V36.8771V36.9718V37.0664V37.1609V37.2553V37.3496V37.4437V37.5377V37.6316V37.7253V37.8189V37.9124V38.0057V38.0989V38.192V38.2849V38.3777V38.4704V38.5629V38.6552V38.7475V38.8395V38.9314V39.0232V39.1148V39.2063V39.2976V39.3887V39.4797V39.5706V39.6613V39.7518V39.8421V39.9323V40.0223V40.1122V40.2019V40.2914V40.3807V40.4699V40.5589V40.6477V40.7364V40.8249V40.9131V41.0013V41.0892V41.1769V41.2645V41.3518V41.439V41.526V41.6128V41.6994V41.7858V41.8721V41.9581V42.0439V42.1295V42.215V42.3002V42.3852V42.47V42.5546V42.639V42.7232V42.8072V42.891V42.9745V43.0578V43.141V43.2239V43.3066V43.389V43.4713V43.5533V43.6351V43.7167V43.798V43.8791V43.96V44.0406V44.1211V44.2012V44.2812V44.3609V44.4404V44.5196V44.5986V44.6773V44.7558V44.8341V44.9121V44.9899V45.0674V45.1446V45.2216V45.2984V45.3749V45.4511V45.5271V45.6028V45.6783V45.7535V45.8284V45.9031V45.9775V46.0516V46.1255V46.199V46.2724V46.3454V46.4182V46.4907V46.5629V46.6348V46.7065V46.7778V46.8489V46.9197V46.9902V47.0604V47.1304V47.2V47.2694V47.3384V47.4072V47.4757V47.5438V47.6117V47.6793V47.7465V47.8135V47.8802V47.9465V48.0126V48.0783V48.1437V48.2088V48.2736V48.3381V48.4023V48.4661V48.5297V48.5929V48.6558V48.7183V48.7806V48.8425V48.9041V48.9653V49.0263V49.0869V49.1471V49.2071V49.2666V49.3259V49.3848V49.4434V49.5016V49.5595V49.6171V49.6743V49.7311V49.7876V49.8438V49.8996V49.955V50.0101V50.0649V50.1193V50.1733V50.227V50.2803V50.3332V50.3858V50.438V50.4898V50.5413V50.5924V50.6432V50.6935V50.7435V50.7931V50.8424V50.8912V50.9397V50.9878V51.0355V51.0829V51.1298V51.1764V51.2226V51.2683V51.3137V51.3587V51.4033V51.4476V51.4914V51.5348V51.5778V51.6204V51.6626V51.7045V51.7459V51.7869V51.8275V51.8676V51.9074V51.9468V51.9857V52.0243V52.0624V52.1001V52.1374V52.1742V52.2107V52.2467V52.2823V52.3174V52.3522V52.3865V52.4204V52.4538V52.4868V52.5194V52.5515V52.5833V52.6145V52.6454V52.6757V52.7057V52.7352V52.7642V52.7928V52.821V52.8487V52.876V52.9028V52.9291V52.955V52.9804V53.0054V53.0299V53.054V53.0776V53.1007V53.1234V53.1456V53.1673V53.1886V53.2094V53.2297V53.2444ZM49.6005 18.61V21.0242V58.2209V58.3713L49.5562 58.515C48.4034 62.2619 45.3445 66.3826 41.3489 69.5319C37.3453 72.6875 32.2734 74.9684 27.0154 74.8541L26.0371 74.8329V73.8544V32.6145V31.7755L26.8633 31.6297C33.597 30.4414 38.2268 28.2267 41.4687 26.0257C44.1518 24.204 45.8891 22.3947 47.1473 21.0845C47.4164 20.8043 47.6635 20.5469 47.8933 20.3171L49.6005 18.61ZM28.0371 33.4466V72.8449C32.3642 72.6669 36.6148 70.7167 40.1108 67.9612C43.824 65.0345 46.5618 61.2969 47.6005 58.0674V23.4886C46.3976 24.6974 44.7769 26.197 42.5921 27.6803C39.256 29.9453 34.6107 32.177 28.0371 33.4466ZM29.9502 9.16441C29.924 9.1543 29.8972 9.14414 29.8697 9.13396C28.8274 8.74793 27.254 8.46899 25.4183 8.46899C23.5825 8.46899 22.0091 8.74793 20.9668 9.13396C20.9393 9.14414 20.9125 9.1543 20.8863 9.16441C20.9125 9.17453 20.9393 9.18468 20.9668 9.19486C22.0091 9.58089 23.5825 9.85983 25.4183 9.85983C27.254 9.85983 28.8274 9.58089 29.8697 9.19486C29.8972 9.18468 29.924 9.17453 29.9502 9.16441ZM25.4183 11.8598C29.4376 11.8598 32.6959 10.6531 32.6959 9.16441C32.6959 7.67577 29.4376 6.46899 25.4183 6.46899C21.3989 6.46899 18.1406 7.67577 18.1406 9.16441C18.1406 10.6531 21.3989 11.8598 25.4183 11.8598ZM99.1602 9.43396C99.1602 10.0051 98.8774 10.7546 97.9261 11.6491C96.9711 12.5471 95.4812 13.4479 93.4737 14.2464C89.4702 15.8387 83.8024 16.8679 77.4405 16.8679C71.0786 16.8679 65.4109 15.8387 61.4073 14.2464C59.3998 13.4479 57.9099 12.5471 56.9549 11.6491C56.0037 10.7546 55.7208 10.0051 55.7208 9.43396C55.7208 8.86287 56.0037 8.11335 56.9549 7.21885C57.9099 6.32082 59.3998 5.41998 61.4073 4.62155C65.4109 3.02923 71.0786 2 77.4405 2C83.8024 2 89.4702 3.02923 93.4737 4.62155C95.4812 5.41998 96.9711 6.32082 97.9261 7.21885C98.8774 8.11335 99.1602 8.86287 99.1602 9.43396ZM101.16 9.43396C101.16 14.6442 90.5405 18.8679 77.4405 18.8679C64.3405 18.8679 53.7208 14.6442 53.7208 9.43396C53.7208 4.22373 64.3405 0 77.4405 0C90.5405 0 101.16 4.22373 101.16 9.43396ZM52.7208 13.5062L54.3589 14.8634C57.3156 17.3133 66.4692 22.1019 78.6853 20.8382C91.1067 19.5532 95.2005 17.9047 98.5848 16.3427L101.365 15.0595L99.878 17.7363C99.1089 19.1207 97.5688 20.6354 96.0117 21.9555C94.4255 23.3003 92.7085 24.5363 91.4723 25.3604C89.8388 26.4493 87.2037 27.6059 84.3924 28.5318C81.8977 29.3535 79.187 30.0189 76.8082 30.2914L76.284 61.7417L76.2668 62.7782L75.2316 62.7237C71.0847 62.5054 65.9399 61.8233 61.6336 60.4616C59.4821 59.7812 57.4912 58.9163 55.9315 57.8204C54.3857 56.7343 53.1797 55.3602 52.7572 53.6387C52.7208 53.6387 52.7208 53.6386 52.7208 53.6385V53.6378V53.6364V53.6346V53.6322V53.6293V53.6259V53.622V53.6175V53.6125V53.607V53.601V53.5945V53.5875V53.58V53.5719V53.5634V53.5543V53.5447V53.5347V53.5241V53.513V53.5014V53.4894V53.4768V53.4637V53.4502V53.4361V53.4216V53.4066V53.3911V53.3751V53.3586V53.3416V53.3241V53.3062V53.2878V53.2689V53.2495V53.2297V53.2094V53.1886V53.1673V53.1456V53.1234V53.1007V53.0776V53.054V53.0299V53.0054V52.9804V52.955V52.9291V52.9028V52.876V52.8487V52.821V52.7928V52.7642V52.7352V52.7057V52.6757V52.6454V52.6145V52.5833V52.5515V52.5194V52.4868V52.4538V52.4204V52.3865V52.3522V52.3174V52.2823V52.2467V52.2107V52.1742V52.1374V52.1001V52.0624V52.0243V51.9857V51.9468V51.9074V51.8676V51.8275V51.7869V51.7459V51.7045V51.6626V51.6204V51.5778V51.5348V51.4914V51.4476V51.4033V51.3587V51.3137V51.2683V51.2226V51.1764V51.1298V51.0829V51.0355V50.9878V50.9397V50.8912V50.8424V50.7931V50.7435V50.6935V50.6432V50.5924V50.5413V50.4898V50.438V50.3858V50.3332V50.2803V50.227V50.1733V50.1193V50.0649V50.0101V49.955V49.8996V49.8438V49.7876V49.7311V49.6743V49.6171V49.5595V49.5016V49.4434V49.3848V49.3259V49.2666V49.2071V49.1471V49.0869V49.0263V48.9653V48.9041V48.8425V48.7806V48.7183V48.6558V48.5929V48.5297V48.4661V48.4023V48.3381V48.2736V48.2088V48.1437V48.0783V48.0126V47.9465V47.8802V47.8135V47.7465V47.6793V47.6117V47.5438V47.4757V47.4072V47.3384V47.2694V47.2V47.1304V47.0604V46.9902V46.9197V46.8489V46.7778V46.7065V46.6348V46.5629V46.4907V46.4182V46.3454V46.2724V46.199V46.1255V46.0516V45.9775V45.9031V45.8284V45.7535V45.6783V45.6028V45.5271V45.4511V45.3749V45.2984V45.2216V45.1446V45.0674V44.9899V44.9121V44.8341V44.7558V44.6773V44.5986V44.5196V44.4404V44.3609V44.2812V44.2012V44.1211V44.0406V43.96V43.8791V43.798V43.7167V43.6351V43.5533V43.4713V43.389V43.3066V43.2239V43.141V43.0578V42.9745V42.891V42.8072V42.7232V42.639V42.5546V42.47V42.3852V42.3002V42.215V42.1295V42.0439V41.9581V41.8721V41.7858V41.6994V41.6128V41.526V41.439V41.3518V41.2645V41.1769V41.0892V41.0013V40.9131V40.8249V40.7364V40.6477V40.5589V40.4699V40.3807V40.2914V40.2019V40.1122V40.0223V39.9323V39.8421V39.7518V39.6613V39.5706V39.4797V39.3887V39.2976V39.2063V39.1148V39.0232V38.9314V38.8395V38.7475V38.6552V38.5629V38.4704V38.3777V38.2849V38.192V38.0989V38.0057V37.9124V37.8189V37.7253V37.6316V37.5377V37.4437V37.3496V37.2553V37.1609V37.0664V36.9718V36.8771V36.7822V36.6872V36.5921V36.4969V36.4016V36.3061V36.2106V36.1149V36.0192V35.9233V35.8273V35.7312V35.635V35.5387V35.4424V35.3459V35.2493V35.1526V35.0559V34.959V34.862V34.765V34.6679V34.5707V34.4734V34.376V34.2785V34.1809V34.0833V33.9856V33.8878V33.79V33.692V33.594V33.4959V33.3978V33.2996V33.2013V33.1029V33.0045V32.906V32.8075V32.7089V32.6102V32.5115V32.4128V32.3139V32.215V32.1161V32.0171V31.9181V31.819V31.7199V31.6207V31.5215V31.4223V31.323V31.2237V31.1243V31.0249V30.9254V30.826V30.7265V30.6269V30.5274V30.4278V30.3281V30.2285V30.1288V30.0291V29.9294V29.8297V29.73V29.6302V29.5304V29.4306V29.3308V29.231V29.1312V29.0313V28.9315V28.8317V28.7318V28.632V28.5321V28.4323V28.3324V28.2326V28.1327V28.0329V27.9331V27.8332V27.7334V27.6336V27.5339V27.4341V27.3343V27.2346V27.1349V27.0352V26.9355V26.8359V26.7362V26.6366V26.5371V26.4375V26.338V26.2385V26.1391V26.0396V25.9403V25.8409V25.7416V25.6423V25.5431V25.4439V25.3448V25.2457V25.1466V25.0476V24.9487V24.8498V24.751V24.6522V24.5534V24.4548V24.3561V24.2576V24.1591V24.0606V23.9623V23.8639V23.7657V23.6675V23.5694V23.4714V23.3734V23.2755V23.1777V23.08V22.9823V22.8848V22.7873V22.6898V22.5925V22.4953V22.3981V22.301V22.204V22.1071V22.0103V21.9136V21.817V21.7205V21.6241V21.5278V21.4315V21.3354V21.2394V21.1435V21.0477V20.952V20.8564V20.7609V20.6655V20.5703V20.4751V20.3801V20.2852V20.1904V20.0958V20.0012V19.9068V19.8125V19.7183V19.6243V19.5303V19.4366V19.3429V19.2494V19.156V19.0627V18.9696V18.8766V18.7838V18.6911V18.5985V18.5061V18.4139V18.3217V18.2298V18.138V18.0463V17.9548V17.8634V17.7722V17.6811V17.5902V17.4995V17.4089V17.3185V17.2283V17.1382V17.0483V16.9585V16.869V16.7795V16.6903V16.6012V16.5124V16.4237V16.3351V16.2468V16.1586V16.0706V15.9828V15.8952V15.8077V15.7205V15.6334V13.5062ZM54.7208 53.2444C55.006 54.2952 55.7928 55.2786 57.0813 56.184C58.4107 57.1181 60.19 57.9075 62.2366 58.5546C65.984 59.7396 70.4645 60.3976 74.3017 60.6633L74.8234 29.3634L74.8386 28.449L75.7507 28.3827C78.1116 28.211 81.0377 27.531 83.7668 26.6322C86.5047 25.7305 88.9459 24.6409 90.3629 23.6963C91.5526 22.9031 93.2049 21.7131 94.7184 20.43C94.9842 20.2046 95.2426 19.9789 95.4911 19.7545C92.1973 20.8734 87.4608 21.9411 78.8911 22.8276C67.7779 23.9772 59.0167 20.3679 54.7208 17.5897V17.5902V17.6811V17.7722V17.8634V17.9548V18.0463V18.138V18.2298V18.3217V18.4139V18.5061V18.5985V18.6911V18.7838V18.8766V18.9696V19.0627V19.156V19.2494V19.3429V19.4366V19.5303V19.6243V19.7183V19.8125V19.9068V20.0012V20.0958V20.1904V20.2852V20.3801V20.4751V20.5703V20.6655V20.7609V20.8564V20.952V21.0477V21.1435V21.2394V21.3354V21.4315V21.5278V21.6241V21.7205V21.817V21.9136V22.0103V22.1071V22.204V22.301V22.3981V22.4953V22.5925V22.6898V22.7873V22.8848V22.9823V23.08V23.1777V23.2755V23.3734V23.4714V23.5694V23.6675V23.7657V23.8639V23.9623V24.0606V24.1591V24.2576V24.3561V24.4548V24.5534V24.6522V24.751V24.8498V24.9487V25.0476V25.1466V25.2457V25.3448V25.4439V25.5431V25.6423V25.7416V25.8409V25.9403V26.0396V26.1391V26.2385V26.338V26.4375V26.5371V26.6366V26.7362V26.8359V26.9355V27.0352V27.1349V27.2346V27.3343V27.4341V27.5339V27.6336V27.7334V27.8332V27.9331V28.0329V28.1327V28.2326V28.3324V28.4323V28.5321V28.632V28.7318V28.8317V28.9315V29.0313V29.1312V29.231V29.3308V29.4306V29.5304V29.6302V29.73V29.8297V29.9294V30.0291V30.1288V30.2285V30.3281V30.4278V30.5274V30.6269V30.7265V30.826V30.9254V31.0249V31.1243V31.2237V31.323V31.4223V31.5215V31.6207V31.7199V31.819V31.9181V32.0171V32.1161V32.215V32.3139V32.4128V32.5115V32.6102V32.7089V32.8075V32.906V33.0045V33.1029V33.2013V33.2996V33.3978V33.4959V33.594V33.692V33.79V33.8878V33.9856V34.0833V34.1809V34.2785V34.376V34.4734V34.5707V34.6679V34.765V34.862V34.959V35.0559V35.1526V35.2493V35.3459V35.4424V35.5387V35.635V35.7312V35.8273V35.9233V36.0192V36.1149V36.2106V36.3061V36.4016V36.4969V36.5921V36.6872V36.7822V36.8771V36.9718V37.0664V37.1609V37.2553V37.3496V37.4437V37.5377V37.6316V37.7253V37.8189V37.9124V38.0057V38.0989V38.192V38.2849V38.3777V38.4704V38.5629V38.6552V38.7475V38.8395V38.9314V39.0232V39.1148V39.2063V39.2976V39.3887V39.4797V39.5706V39.6613V39.7518V39.8421V39.9323V40.0223V40.1122V40.2019V40.2914V40.3807V40.4699V40.5589V40.6477V40.7364V40.8249V40.9131V41.0013V41.0892V41.1769V41.2645V41.3518V41.439V41.526V41.6128V41.6994V41.7858V41.8721V41.9581V42.0439V42.1295V42.215V42.3002V42.3852V42.47V42.5546V42.639V42.7232V42.8072V42.891V42.9745V43.0578V43.141V43.2239V43.3066V43.389V43.4713V43.5533V43.6351V43.7167V43.798V43.8791V43.96V44.0406V44.1211V44.2012V44.2812V44.3609V44.4404V44.5196V44.5986V44.6773V44.7558V44.8341V44.9121V44.9899V45.0674V45.1446V45.2216V45.2984V45.3749V45.4511V45.5271V45.6028V45.6783V45.7535V45.8284V45.9031V45.9775V46.0516V46.1255V46.199V46.2724V46.3454V46.4182V46.4907V46.5629V46.6348V46.7065V46.7778V46.8489V46.9197V46.9902V47.0604V47.1304V47.2V47.2694V47.3384V47.4072V47.4757V47.5438V47.6117V47.6793V47.7465V47.8135V47.8802V47.9465V48.0126V48.0783V48.1437V48.2088V48.2736V48.3381V48.4023V48.4661V48.5297V48.5929V48.6558V48.7183V48.7806V48.8425V48.9041V48.9653V49.0263V49.0869V49.1471V49.2071V49.2666V49.3259V49.3848V49.4434V49.5016V49.5595V49.6171V49.6743V49.7311V49.7876V49.8438V49.8996V49.955V50.0101V50.0649V50.1193V50.1733V50.227V50.2803V50.3332V50.3858V50.438V50.4898V50.5413V50.5924V50.6432V50.6935V50.7435V50.7931V50.8424V50.8912V50.9397V50.9878V51.0355V51.0829V51.1298V51.1764V51.2226V51.2683V51.3137V51.3587V51.4033V51.4476V51.4914V51.5348V51.5778V51.6204V51.6626V51.7045V51.7459V51.7869V51.8275V51.8676V51.9074V51.9468V51.9857V52.0243V52.0624V52.1001V52.1374V52.1742V52.2107V52.2467V52.2823V52.3174V52.3522V52.3865V52.4204V52.4538V52.4868V52.5194V52.5515V52.5833V52.6145V52.6454V52.6757V52.7057V52.7352V52.7642V52.7928V52.821V52.8487V52.876V52.9028V52.9291V52.955V52.9804V53.0054V53.0299V53.054V53.0776V53.1007V53.1234V53.1456V53.1673V53.1886V53.2094V53.2297V53.2444ZM101.353 18.61V21.0242V58.2209V58.3713L101.308 58.515C100.155 62.2619 97.0966 66.3826 93.101 69.5319C89.0974 72.6875 84.0254 74.9684 78.7675 74.8541L77.7892 74.8329V73.8544V32.6145V31.7755L78.6154 31.6297C85.3491 30.4414 89.9789 28.2267 93.2208 26.0257C95.9038 24.2041 97.6412 22.3948 98.8993 21.0846L98.8994 21.0845C99.1685 20.8043 99.4156 20.5469 99.6454 20.3171L101.353 18.61ZM79.7892 33.4466V72.8449C84.1163 72.6669 88.3669 70.7167 91.8629 67.9612C95.576 65.0345 98.3139 61.2969 99.3525 58.0674V23.4886C98.1497 24.6974 96.529 26.197 94.3442 27.6803C91.0081 29.9453 86.3628 32.177 79.7892 33.4466ZM81.7023 9.16441C81.6761 9.1543 81.6493 9.14414 81.6218 9.13396C80.5795 8.74793 79.0061 8.46899 77.1703 8.46899C75.3346 8.46899 73.7612 8.74793 72.7189 9.13396C72.6914 9.14414 72.6646 9.1543 72.6384 9.16441C72.6646 9.17453 72.6914 9.18468 72.7189 9.19486C73.7612 9.58089 75.3346 9.85983 77.1703 9.85983C79.0061 9.85983 80.5795 9.58089 81.6218 9.19486C81.6493 9.18468 81.6761 9.17453 81.7023 9.16441ZM77.1703 11.8598C81.1897 11.8598 84.448 10.6531 84.448 9.16441C84.448 7.67577 81.1897 6.46899 77.1703 6.46899C73.151 6.46899 69.8927 7.67577 69.8927 9.16441C69.8927 10.6531 73.151 11.8598 77.1703 11.8598Z" fill="#349510"/>
</svg>
