<svg width="102" height="96" viewBox="0 0 102 96" fill="none" xmlns="http://www.w3.org/2000/svg">
<path d="M1.90039 56.5346L1.64149 55.5687C1.25457 55.6725 0.966872 55.9971 0.910384 56.3936C0.853895 56.7902 1.03951 57.1822 1.38209 57.3898L1.90039 56.5346ZM56.0816 42.0118L56.3405 42.9777C56.3855 42.9656 56.4297 42.9504 56.4727 42.9321L56.0816 42.0118ZM67.2529 33.354L66.4323 33.9255L67.2529 33.354ZM98.812 52.0661L98.5373 53.0276L98.812 52.0661ZM29.5495 73.2917L29.0312 74.1469C29.2663 74.2894 29.5495 74.3288 29.8145 74.256L29.5495 73.2917ZM2.15929 57.5005L56.3405 42.9777L55.8226 41.0459L1.64149 55.5687L2.15929 57.5005ZM56.4727 42.9321C62.2206 40.4893 64.8475 37.7456 66.1987 35.7751C66.5319 35.2892 66.7804 34.8607 66.9723 34.5154C67.1822 34.138 67.2803 33.9459 67.3689 33.8123C67.4105 33.7496 67.3996 33.7804 67.3379 33.8313C67.2588 33.8965 67.0575 34.023 66.7699 33.9965C66.517 33.9732 66.3775 33.8454 66.3655 33.8345C66.348 33.8186 66.3685 33.8338 66.4323 33.9255L68.0735 32.7825C67.9765 32.6432 67.8562 32.4868 67.7108 32.3546C67.5708 32.2274 67.3161 32.0384 66.9534 32.005C66.556 31.9683 66.2503 32.1357 66.065 32.2886C65.897 32.4272 65.778 32.5925 65.7021 32.7069C65.5559 32.9274 65.3821 33.2598 65.2243 33.5436C65.0487 33.8595 64.8338 34.229 64.5492 34.644C63.4292 36.2774 61.1139 38.7865 55.6904 41.0915L56.4727 42.9321ZM66.4323 33.9255C77.5767 49.9275 94.7868 51.956 98.5373 53.0276L99.0868 51.1046C95.0174 49.9419 78.7134 48.0601 68.0735 32.7825L66.4323 33.9255ZM98.5373 53.0276C98.5233 53.0236 98.4098 52.9922 98.2824 52.8863C98.1269 52.7571 97.9589 52.5172 97.9578 52.1899C97.9569 51.9147 98.0772 51.7355 98.1165 51.6819C98.1628 51.6189 98.1988 51.5925 98.1879 51.6014C98.1176 51.6583 97.8649 51.8076 97.3284 52.046C96.3124 52.4973 94.6361 53.1169 92.4178 53.8702C87.9958 55.3718 81.5422 57.3642 74.2154 59.5419C59.5669 63.896 41.4766 68.977 29.2846 72.3275L29.8145 74.256C42.0133 70.9036 60.1183 65.8186 74.7853 61.4591C82.1163 59.28 88.6005 57.2786 93.0609 55.764C95.2839 55.0091 97.0348 54.3649 98.1404 53.8737C98.6646 53.6408 99.1463 53.399 99.4474 53.1549C99.5293 53.0885 99.6355 52.9925 99.7287 52.8655C99.8149 52.7481 99.9589 52.5107 99.9578 52.1833C99.9565 51.8038 99.7645 51.5176 99.5607 51.3482C99.3848 51.202 99.1986 51.1365 99.0868 51.1046L98.5373 53.0276ZM30.0678 72.4365L2.41869 55.6794L1.38209 57.3898L29.0312 74.1469L30.0678 72.4365Z" fill="#349510"/>
<path d="M1.90039 61.2017L30.946 78.5174L100.767 57.2917" stroke="#349510" stroke-width="2" stroke-linejoin="round"/>
<path d="M1.90039 66.4273L30.946 83.7429L100.767 62.5173" stroke="#349510" stroke-width="2" stroke-linejoin="round"/>
<path d="M1.90039 71.6529L30.946 88.9685L100.767 67.7429" stroke="#349510" stroke-width="2" stroke-linejoin="round"/>
<path d="M1.90039 76.8785L30.946 94.1941L100.767 72.9685" stroke="#349510" stroke-width="2" stroke-linejoin="round"/>
<path d="M34.1347 12C34.5815 14.9046 32.8313 16.7478 31.9004 17.3064" stroke="#349510" stroke-width="2"/>
<path d="M13.1347 24C13.5815 26.9046 11.8313 28.7478 10.9004 29.3064" stroke="#349510" stroke-width="2"/>
<path d="M9.25917 11L10.0357 10.37L9.17053 9.30354L8.42117 10.4543L9.25917 11ZM9.25918 33.0635L9.22889 34.063L9.25918 33.0635ZM8.42117 10.4543C6.45538 13.4732 4.72736 16.3694 3.42773 19.0247C2.13409 21.6677 1.23303 24.1352 0.97587 26.2843C0.717064 28.4472 1.10031 30.4252 2.5525 31.8661C3.97053 33.2732 6.21717 33.9717 9.22889 34.063L9.28947 32.0639C6.49065 31.9791 4.85453 31.3328 3.96121 30.4464C3.10206 29.5939 2.74537 28.3298 2.9617 26.5219C3.17968 24.7003 3.96882 22.4686 5.2241 19.9039C6.47338 17.3515 8.15299 14.5314 10.0972 11.5457L8.42117 10.4543ZM9.22889 34.063C11.6532 34.1365 13.7833 33.7021 15.3847 32.6515C17.0247 31.5756 18.0131 29.9145 18.2144 27.7812C18.4116 25.6905 17.8534 23.1851 16.5298 20.3128C15.2017 17.4306 13.0724 14.1128 10.0357 10.37L8.48261 11.63C11.4506 15.2882 13.4756 18.4638 14.7134 21.1498C15.9557 23.8457 16.3751 25.9834 16.2232 27.5933C16.0754 29.1605 15.388 30.2574 14.2876 30.9793C13.1485 31.7266 11.4734 32.1301 9.28947 32.0639L9.22889 34.063Z" fill="#349510"/>
<path d="M31.0583 2L31.8433 1.38058L30.9688 0.27217L30.2134 1.46499L31.0583 2ZM31.0583 20.9849L31.0271 21.9844L31.0583 20.9849ZM30.2134 1.46499C28.5669 4.06499 27.1178 6.56203 26.0271 8.85346C24.9421 11.1331 24.1817 13.2703 23.9643 15.1383C23.7458 17.0162 24.0654 18.7623 25.3213 20.0438C26.55 21.2974 28.4835 21.9052 31.0271 21.9844L31.0894 19.9854C28.7707 19.9131 27.4551 19.3637 26.7497 18.6439C26.0715 17.9519 25.7719 16.9083 25.9509 15.3695C26.1311 13.8208 26.7852 11.9145 27.833 9.71303C28.8753 7.52337 30.2777 5.10179 31.9031 2.53501L30.2134 1.46499ZM31.0271 21.9844C33.08 22.0484 34.9044 21.6709 36.2843 20.74C37.7006 19.7846 38.5436 18.3153 38.7147 16.4502C38.8822 14.6245 38.4077 12.4476 37.2949 9.96453C36.1779 7.47197 34.3894 4.6075 31.8433 1.38058L30.2732 2.61942C32.7518 5.76085 34.4397 8.48371 35.4698 10.7824C36.5042 13.0906 36.8477 14.909 36.7231 16.2675C36.6021 17.5865 36.0428 18.4904 35.1658 19.082C34.2525 19.6981 32.8927 20.0416 31.0894 19.9854L31.0271 21.9844Z" fill="#349510"/>
</svg>
