<svg width="102" height="82" viewBox="0 0 102 82" fill="none" xmlns="http://www.w3.org/2000/svg">
<path fill-rule="evenodd" clip-rule="evenodd" d="M28.8396 0.110672C28.602 -0.0114964 28.3254 -0.033506 28.0715 0.0495508C27.8176 0.132608 27.6074 0.313824 27.488 0.552788L25.0608 5.40711L25.7344 5.74394L25.4976 6.20411L89.8571 39.3264C91.236 40.4673 92.3756 41.7475 92.9469 43.4612C93.4862 45.0792 93.5593 47.2084 92.6507 50.1614H81.9702V46.0374C81.9702 45.4851 81.5225 45.0374 80.9702 45.0374H16.7853C16.233 45.0374 15.7853 45.4851 15.7853 46.0374V50.1614H2.76166C2.25591 50.1614 1.82978 50.539 1.76892 51.041C1.4039 54.0525 0.892058 61.6959 1.77043 68.2837C2.24253 71.8244 4.20507 74.5864 6.38966 76.5767C8.56986 78.563 11.0351 79.8418 12.6769 80.4212C12.7818 80.4583 12.8922 80.4775 13.0034 80.4782L99.3025 81.0176C99.5688 81.0193 99.8248 80.9146 100.014 80.7269C100.203 80.5392 100.309 80.2839 100.309 80.0176V51.1614C100.309 51.1452 100.308 51.1291 100.308 51.1131C100.307 51.0988 100.306 51.0845 100.305 51.0702C102.749 43.7212 98.7992 37.0708 95.6277 34.476C95.5733 34.4315 95.5143 34.3928 95.4518 34.3606L28.8396 0.110672ZM98.4958 50.1614C100.399 43.9792 97.1096 38.3306 94.4404 36.0895L28.8245 2.35178L27.5062 4.98849L90.8675 37.597C90.9299 37.6291 90.9888 37.6678 91.0431 37.7122C92.5947 38.9817 94.0916 40.5709 94.8442 42.8288C95.5042 44.8086 95.5561 47.1921 94.7342 50.1614H98.4958ZM17.7853 47.0374V51.1614C17.7853 51.7136 17.3375 52.1614 16.7853 52.1614H3.65796C3.32307 55.5166 2.98039 62.2256 3.75289 68.0193C4.14378 70.951 5.77704 73.313 7.7366 75.0983C9.63049 76.8237 11.7692 77.9532 13.188 78.4794L98.3088 79.0114V52.1614H80.9702C80.4179 52.1614 79.9702 51.7136 79.9702 51.1614V47.0374H17.7853ZM19.4828 67.9999C20.8885 67.9999 22.0281 66.8604 22.0281 65.4547C22.0281 64.0489 20.8885 62.9094 19.4828 62.9094C18.0771 62.9094 16.9375 64.0489 16.9375 65.4547C16.9375 66.8604 18.0771 67.9999 19.4828 67.9999ZM19.4828 69.4999C21.7169 69.4999 23.5281 67.6888 23.5281 65.4547C23.5281 63.2205 21.7169 61.4094 19.4828 61.4094C17.2486 61.4094 15.4375 63.2205 15.4375 65.4547C15.4375 67.6888 17.2486 69.4999 19.4828 69.4999ZM7.67572 23.3839C7.67572 22.9697 8.0115 22.6339 8.42572 22.6339H14.3588C14.773 22.6339 15.1088 22.9697 15.1088 23.3839V25.7701L15.3814 26.0427L17.6492 25.3624C17.9984 25.2576 18.3724 25.4192 18.5355 25.7453L20.693 30.0603C20.8621 30.3986 20.7529 30.8099 20.4382 31.0197L19.154 31.8758V32.7257L21.2917 34.3883C21.5929 34.6226 21.6702 35.0458 21.4712 35.3714L18.5046 40.2257C18.4002 40.3966 18.2319 40.5186 18.037 40.5646C17.8421 40.6106 17.637 40.5768 17.4672 40.4706L15.6324 39.3239L15.1088 39.5334V41.4528C15.1088 41.867 14.773 42.2028 14.3588 42.2028H8.42572C8.0115 42.2028 7.67572 41.867 7.67572 41.4528V39.4006L7.37828 39.1775L5.94728 40.4041C5.78657 40.5418 5.57514 40.6053 5.36514 40.5787C5.15515 40.5522 4.96614 40.4381 4.84476 40.2647L1.06917 34.871C0.937847 34.6834 0.899431 34.4461 0.964869 34.2266C1.03031 34.0072 1.19243 33.8296 1.40506 33.7446L3.63045 32.8544V32.0401L2.28661 31.6562C2.08029 31.5972 1.90909 31.4527 1.81634 31.2592C1.72358 31.0657 1.71816 30.8418 1.80143 30.644L3.9589 25.52C4.1176 25.1431 4.54898 24.9628 4.92867 25.1147L7.23417 26.0369L7.67572 25.7057V23.3839ZM9.17572 24.1339V26.0807C9.17572 26.3168 9.06457 26.5391 8.87572 26.6807L7.79698 27.4898C7.58758 27.6468 7.31146 27.6833 7.06843 27.5861L5.05551 26.781L3.5122 30.4463L4.58649 30.7533C4.90846 30.8453 5.13045 31.1396 5.13045 31.4744V33.3622C5.13045 33.6689 4.94373 33.9447 4.65899 34.0586L2.84058 34.7859L5.5992 38.7268L6.85888 37.6471C7.12578 37.4183 7.51576 37.4056 7.79698 37.6165L8.87572 38.4256C9.06457 38.5672 9.17572 38.7895 9.17572 39.0256V40.7028H13.6088V39.0256C13.6088 38.7189 13.7955 38.4431 14.0802 38.3292L15.4287 37.7899C15.6507 37.701 15.9019 37.7235 16.1047 37.8502L17.6198 38.7971L19.8419 35.161L17.9436 33.6845C17.7609 33.5424 17.654 33.324 17.654 33.0925V31.4744C17.654 31.2237 17.7794 30.9895 17.988 30.8504L19.0552 30.1389L17.476 26.9804L15.3833 27.6081C15.1191 27.6874 14.8326 27.6152 14.6375 27.4201L13.8284 26.6111C13.6878 26.4704 13.6088 26.2796 13.6088 26.0807V24.1339H9.17572ZM11.1216 35.6378C12.6763 35.6378 13.9366 34.3775 13.9366 32.8229C13.9366 31.2682 12.6763 30.0079 11.1216 30.0079C9.56694 30.0079 8.30664 31.2682 8.30664 32.8229C8.30664 34.3775 9.56694 35.6378 11.1216 35.6378ZM11.1216 37.1378C13.5047 37.1378 15.4366 35.2059 15.4366 32.8229C15.4366 30.4398 13.5047 28.5079 11.1216 28.5079C8.73851 28.5079 6.80664 30.4398 6.80664 32.8229C6.80664 35.2059 8.73851 37.1378 11.1216 37.1378ZM21.2475 9.14966C20.8333 9.14966 20.4975 9.48545 20.4975 9.89966V11.5252L20.3345 11.6475L18.7253 11.0038C18.3456 10.8519 17.9142 11.0322 17.7555 11.4091L16.155 15.2102C16.0718 15.408 16.0772 15.6319 16.17 15.8254C16.2627 16.0189 16.4339 16.1634 16.6402 16.2224L17.4967 16.4671V16.794L15.9676 17.4056C15.7549 17.4907 15.5928 17.6682 15.5274 17.8877C15.4619 18.1071 15.5003 18.3445 15.6317 18.5321L18.4325 22.5332C18.5539 22.7066 18.7429 22.8207 18.9528 22.8472C19.1628 22.8737 19.3743 22.8103 19.535 22.6726L20.4786 21.8638L20.4975 21.8779V23.3035C20.4975 23.7177 20.8333 24.0535 21.2475 24.0535H25.6488C26.063 24.0535 26.3988 23.7177 26.3988 23.3035V22.0107L26.5743 21.9405L27.852 22.7391C28.0218 22.8452 28.2269 22.879 28.4218 22.833C28.6167 22.787 28.7851 22.665 28.8895 22.4942L31.0901 18.8932C31.2891 18.5675 31.2118 18.1444 30.9106 17.9101L29.3996 16.7349V16.3027L30.266 15.7252C30.5807 15.5154 30.6899 15.104 30.5208 14.7657L28.9203 11.5648C28.7572 11.2387 28.3832 11.0771 28.034 11.1819L26.4625 11.6533L26.3988 11.5896V9.89966C26.3988 9.48545 26.063 9.14966 25.6488 9.14966H21.2475ZM21.9975 11.9002V10.6497H24.8988V11.9002C24.8988 12.0991 24.9778 12.2899 25.1184 12.4306L25.7186 13.0307C25.9137 13.2258 26.2002 13.298 26.4644 13.2188L27.8608 12.7999L28.883 14.8444L28.2336 15.2773C28.0249 15.4164 27.8996 15.6506 27.8996 15.9014V17.1017C27.8996 17.3331 28.0065 17.5516 28.1892 17.6937L29.4608 18.6827L28.0046 21.0656L27.0465 20.4668C26.8437 20.3401 26.5926 20.3176 26.3705 20.4065L25.3702 20.8066C25.0855 20.9205 24.8988 21.1963 24.8988 21.5029V22.5535H21.9975V21.5029C21.9975 21.2669 21.8864 21.0446 21.6975 20.9029L20.8973 20.3028C20.6161 20.0919 20.2261 20.1046 19.9592 20.3333L19.1869 20.9953L17.4031 18.447L18.5252 17.9981C18.81 17.8842 18.9967 17.6084 18.9967 17.3018V15.9014C18.9967 15.5665 18.7747 15.2722 18.4527 15.1802L17.8658 15.0125L18.8521 12.6701L20.1687 13.1968C20.4118 13.294 20.6879 13.2574 20.8973 13.1004L21.6975 12.5002C21.8864 12.3586 21.9975 12.1363 21.9975 11.9002ZM24.9487 16.9016C24.9487 17.841 24.1872 18.6025 23.2478 18.6025C22.3084 18.6025 21.5469 17.841 21.5469 16.9016C21.5469 15.9622 22.3084 15.2007 23.2478 15.2007C24.1872 15.2007 24.9487 15.9622 24.9487 16.9016ZM26.4487 16.9016C26.4487 18.6694 25.0156 20.1025 23.2478 20.1025C21.48 20.1025 20.0469 18.6694 20.0469 16.9016C20.0469 15.1338 21.48 13.7007 23.2478 13.7007C25.0156 13.7007 26.4487 15.1338 26.4487 16.9016ZM27.5092 29.3169C27.5092 28.9027 27.845 28.5669 28.2592 28.5669H32.6605C33.0747 28.5669 33.4105 28.9027 33.4105 29.3169V31.0068L33.4742 31.0705L35.0457 30.5991C35.395 30.4943 35.769 30.6559 35.932 30.982L37.5325 34.183C37.7016 34.5213 37.5924 34.9326 37.2777 35.1424L36.4113 35.72V36.1521L37.9223 37.3273C38.2235 37.5616 38.3008 37.9848 38.1018 38.3104L35.9012 41.9114C35.7968 42.0823 35.6284 42.2043 35.4335 42.2503C35.2387 42.2963 35.0335 42.2625 34.8637 42.1563L33.586 41.3578L33.4105 41.428V42.7207C33.4105 43.1349 33.0747 43.4707 32.6605 43.4707H28.2592C27.845 43.4707 27.5092 43.1349 27.5092 42.7207V41.2952L27.4903 41.281L26.5467 42.0898C26.386 42.2275 26.1746 42.291 25.9646 42.2644C25.7546 42.2379 25.5656 42.1238 25.4442 41.9504L22.6434 37.9493C22.5121 37.7617 22.4736 37.5244 22.5391 37.3049C22.6045 37.0854 22.7666 36.9079 22.9793 36.8229L24.5084 36.2112V35.8843L23.6519 35.6396C23.4456 35.5807 23.2744 35.4362 23.1817 35.2427C23.0889 35.0492 23.0835 34.8252 23.1668 34.6274L24.7672 30.8264C24.9259 30.4495 25.3573 30.2692 25.737 30.421L27.3462 31.0647L27.5092 30.9425V29.3169ZM29.0092 30.0669V31.3175C29.0092 31.5535 28.8981 31.7758 28.7092 31.9175L27.909 32.5176C27.6996 32.6747 27.4235 32.7112 27.1805 32.614L25.8638 32.0873L24.8775 34.4298L25.4644 34.5975C25.7864 34.6894 26.0084 34.9837 26.0084 35.3186V36.719C26.0084 37.0257 25.8217 37.3014 25.5369 37.4153L24.4148 37.8642L26.1986 40.4125L26.9709 39.7506C27.2378 39.5218 27.6278 39.5091 27.909 39.72L28.7092 40.3202C28.8981 40.4618 29.0092 40.6841 29.0092 40.9202V41.9707H31.9105V40.9202C31.9105 40.6135 32.0972 40.3377 32.3819 40.2238L33.3822 39.8237C33.6043 39.7349 33.8554 39.7573 34.0583 39.8841L35.0163 40.4828L36.4725 38.1L35.2009 37.1109C35.0182 36.9689 34.9113 36.7504 34.9113 36.5189V35.3186C34.9113 35.0678 35.0367 34.8337 35.2453 34.6946L35.8948 34.2616L34.8725 32.2171L33.4762 32.636C33.2119 32.7153 32.9254 32.6431 32.7303 32.448L32.1301 31.8478C31.9895 31.7071 31.9105 31.5164 31.9105 31.3175V30.0669H29.0092ZM30.2595 38.0197C31.1989 38.0197 31.9604 37.2582 31.9604 36.3188C31.9604 35.3794 31.1989 34.6179 30.2595 34.6179C29.3201 34.6179 28.5586 35.3794 28.5586 36.3188C28.5586 37.2582 29.3201 38.0197 30.2595 38.0197ZM30.2595 39.5197C32.0273 39.5197 33.4604 38.0866 33.4604 36.3188C33.4604 34.551 32.0273 33.1179 30.2595 33.1179C28.4917 33.1179 27.0586 34.551 27.0586 36.3188C27.0586 38.0866 28.4917 39.5197 30.2595 39.5197Z" fill="#349510"/>
</svg>
